<?xml version="1.0" encoding="utf-8"?>
<!-- Generator: Adobe Illustrator 23.1.0, SVG Export Plug-In . SVG Version: 6.00 Build 0)  -->
<svg version="1.1" id="Layer_1" xmlns="http://www.w3.org/2000/svg" xmlns:xlink="http://www.w3.org/1999/xlink" x="0px" y="0px"
	 viewBox="0 0 195.4 112.2" style="enable-background:new 0 0 195.4 112.2;" xml:space="preserve">
<style type="text/css">
	.st0{fill:none;}
	.st1{fill:#CCCCCC;}
	.st2{fill:none;stroke:#000000;stroke-width:0.25;stroke-linecap:square;}
	.st3{stroke:#FFFFFF;stroke-width:0.4;}
	.st4{fill:none;stroke:#FFFFFF;stroke-width:0.4;}
	.st5{font-family:'MyriadPro-Regular';}
	.st6{font-size:8px;}
	.st7{font-size:8.4416px;}
	.st8{font-size:6.5px;}
	.st9{fill:none;stroke:#000000;stroke-width:0.75;stroke-linecap:square;}
</style>
<rect class="st0" width="195.4" height="112.2"/>
<rect x="123.8" y="12.9" class="st1" width="65.5" height="93.3"/>
<line class="st2" x1="117.8" y1="94.5" x2="47.8" y2="94.5"/>
<g>
	<line class="st2" x1="106.1" y1="12.9" x2="106.1" y2="106.2"/>
	<line class="st2" x1="94.5" y1="12.9" x2="94.5" y2="106.2"/>
	<line class="st2" x1="82.8" y1="12.9" x2="82.8" y2="106.2"/>
	<line class="st2" x1="71.1" y1="12.9" x2="71.1" y2="106.2"/>
	<line class="st2" x1="59.5" y1="12.9" x2="59.5" y2="106.2"/>
	<line class="st2" x1="47.8" y1="12.9" x2="47.8" y2="106.2"/>
	<line class="st2" x1="36.2" y1="12.9" x2="36.2" y2="106.2"/>
	<line class="st2" x1="24.5" y1="12.9" x2="24.5" y2="106.2"/>
</g>
<g>
	<line class="st2" x1="117.8" y1="24.5" x2="12.8" y2="24.5"/>
	<line class="st2" x1="117.8" y1="36.2" x2="12.8" y2="36.2"/>
	<line class="st2" x1="117.8" y1="47.9" x2="12.8" y2="47.9"/>
	<line class="st2" x1="117.8" y1="59.5" x2="12.8" y2="59.5"/>
	<line class="st2" x1="117.8" y1="71.2" x2="12.8" y2="71.2"/>
	<line class="st2" x1="117.8" y1="82.9" x2="12.8" y2="82.9"/>
</g>
<rect x="12.8" y="94.5" class="st3" width="11.7" height="11.6"/>
<g>
	<path class="st4" d="M65.3,65.4"/>
</g>
<g>
	<path class="st3" d="M18.7,100.4"/>
</g>
<g>
	<path class="st3" d="M30.3,100.4"/>
</g>
<g>
	<path class="st3" d="M42,88.7"/>
</g>
<g>
	<path class="st3" d="M53.7,77"/>
</g>
<g>
	<rect x="47.8" y="59.5" class="st3" width="11.7" height="11.6"/>
	<path class="st3" d="M53.7,65.4"/>
</g>
<g>
	<path class="st3" d="M65.3,65.4"/>
</g>
<g>
	<path class="st3" d="M77,53.7"/>
</g>
<g>
	<path class="st3" d="M88.7,42"/>
</g>
<g>
	<rect x="82.8" y="24.5" class="st3" width="11.7" height="11.6"/>
	<path class="st3" d="M88.7,30.4"/>
</g>
<g>
	<path class="st3" d="M100.3,30.4"/>
</g>
<rect x="94.5" y="12.9" class="st3" width="11.7" height="11.7"/>
<g>
	<rect x="106.1" y="12.9" class="st3" width="11.7" height="11.7"/>
	<path class="st3" d="M112,18.7"/>
</g>
<text transform="matrix(1 0 0 1 17.3164 10.3525)" class="st5 st6">0</text>
<text transform="matrix(1 0 0 1 28.9472 10.3525)" class="st5 st6">1</text>
<text transform="matrix(1 0 0 1 40.5781 10.3525)" class="st5 st6">2</text>
<text transform="matrix(1 0 0 1 52.209 10.3525)" class="st5 st6">3</text>
<text transform="matrix(1 0 0 1 63.8398 10.3525)" class="st5 st6">4</text>
<text transform="matrix(1 0 0 1 75.4712 10.3525)" class="st5 st6">5</text>
<text transform="matrix(1 0 0 1 87.102 10.3525)" class="st5 st6">6</text>
<text transform="matrix(1 0 0 1 98.7329 10.3525)" class="st5 st6">7</text>
<text transform="matrix(1 0 0 1 110.3637 10.3525)" class="st5 st6">8</text>
<text transform="matrix(0.9477 0 0 1 3.8633 22.1025)" class="st5 st7">A</text>
<text transform="matrix(0.9477 0 0 1 3.8633 33.7099)" class="st5 st7">B</text>
<text transform="matrix(0.9477 0 0 1 3.8633 45.3174)" class="st5 st7">C</text>
<text transform="matrix(0.9477 0 0 1 3.8633 56.9238)" class="st5 st7">D</text>
<text transform="matrix(0.9477 0 0 1 3.8633 68.5312)" class="st5 st7">E</text>
<text transform="matrix(0.9477 0 0 1 3.8633 80.1386)" class="st5 st7">F</text>
<text transform="matrix(0.9477 0 0 1 3.8633 91.7451)" class="st5 st7">G</text>
<text transform="matrix(0.9477 0 0 1 3.8633 103.3525)" class="st5 st7">H</text>
<rect x="94.5" y="24.5" class="st3" width="11.7" height="11.6"/>
<rect x="82.8" y="36.2" class="st3" width="11.7" height="11.7"/>
<rect x="71.1" y="36.2" class="st3" width="11.7" height="11.7"/>
<rect x="71.1" y="47.8" class="st3" width="11.7" height="11.7"/>
<rect x="59.5" y="47.8" class="st3" width="11.7" height="11.7"/>
<rect x="59.5" y="59.5" class="st3" width="11.7" height="11.6"/>
<rect x="47.8" y="71.2" class="st3" width="11.7" height="11.7"/>
<rect x="36.1" y="71.2" class="st3" width="11.7" height="11.6"/>
<rect x="36.1" y="82.8" class="st3" width="11.7" height="11.7"/>
<rect x="24.5" y="82.8" class="st3" width="11.7" height="11.7"/>
<rect x="24.5" y="94.5" class="st3" width="11.7" height="11.6"/>
<g>
	<text transform="matrix(0.9477 0 0 1 127.8774 20.4155)" class="st5 st8">1 = black</text>
</g>
<rect x="12.8" y="12.9" class="st9" width="105" height="93.3"/>
<text transform="matrix(0.9477 0 0 1 158.7114 20.749)"><tspan x="0" y="0" class="st5 st8">A7 = 1</tspan><tspan x="0" y="13" class="st5 st8">A8 = 1</tspan><tspan x="0" y="26" class="st5 st8">B6 = 1 </tspan><tspan x="0" y="39" class="st5 st8">B7 = 1 </tspan><tspan x="0" y="52" class="st5 st8">C5 = 1 </tspan><tspan x="0" y="65" class="st5 st8">C6 = 1 </tspan><tspan x="0" y="78" class="st5 st8">etc.</tspan></text>
</svg>
